<?xml version="1.0" encoding="UTF-8" standalone="no"?>
<svg
   xmlns:dc="http://purl.org/dc/elements/1.1/"
   xmlns:cc="http://creativecommons.org/ns#"
   xmlns:rdf="http://www.w3.org/1999/02/22-rdf-syntax-ns#"
   xmlns:svg="http://www.w3.org/2000/svg"
   xmlns="http://www.w3.org/2000/svg"
   xmlns:sodipodi="http://sodipodi.sourceforge.net/DTD/sodipodi-0.dtd"
   xmlns:inkscape="http://www.inkscape.org/namespaces/inkscape"
   width="93.259003mm"
   height="30.205mm"
   viewBox="0 0 93.259003 30.205"
   version="1.1"
   id="svg8"
   inkscape:version="1.0.2-2 (e86c870879, 2021-01-15)"
   sodipodi:docname="logo-full.svg">
  <defs
     id="defs2">
    <style
       id="style1586">.cls-1{fill:#212121;}.cls-2{fill:#ffc107;}</style>
  </defs>
  <sodipodi:namedview
     id="base"
     pagecolor="#ffffff"
     bordercolor="#666666"
     borderopacity="1.0"
     inkscape:pageopacity="0.0"
     inkscape:pageshadow="2"
     inkscape:zoom="0.7"
     inkscape:cx="303.70273"
     inkscape:cy="492.08358"
     inkscape:document-units="mm"
     inkscape:current-layer="layer1"
     inkscape:document-rotation="0"
     showgrid="false"
     inkscape:window-width="1346"
     inkscape:window-height="1040"
     inkscape:window-x="2076"
     inkscape:window-y="0"
     inkscape:window-maximized="0" />
  <metadata
     id="metadata5">
    <rdf:RDF>
      <cc:Work
         rdf:about="">
        <dc:format>image/svg+xml</dc:format>
        <dc:type
           rdf:resource="http://purl.org/dc/dcmitype/StillImage" />
        <dc:title></dc:title>
      </cc:Work>
    </rdf:RDF>
  </metadata>
  <g
     inkscape:label="Layer 1"
     inkscape:groupmode="layer"
     id="layer1">
    <g
       id="g1618"
       transform="translate(-27.228164,-35.546392)">
      <path
         d="m 78.638002,42.371635 a 5.4475175,5.4475175 0 0 0 -0.95615,-0.0784 6.7881442,6.7881442 0 0 0 -0.195779,0.003 q -2.575202,0.07423 -5.502258,2.098187 a 22.897777,22.897777 0 0 0 -2.436095,1.965964 q -2.547088,2.34787 -4.05645,5.576315 a 14.162556,14.162556 0 0 0 -0.06669,0.142325 q -0.750927,1.625067 -0.750927,2.735135 a 3.5150403,3.5150403 0 0 0 0.04187,0.552778 2.5477277,2.5477277 0 0 0 0.628989,1.344493 2.7057266,2.7057266 0 0 0 0.401012,0.365373 1.8202041,1.8202041 0 0 0 1.098043,0.373526 3.0734594,3.0734594 0 0 0 0.28873,-0.01397 q 0.709927,-0.0669 1.53512,-0.457683 a 33.79216,33.79216 0 0 0 0.471209,0.534973 q 2.0587,2.286895 3.473392,2.942932 a 2.4906249,2.4906249 0 0 0 1.034296,0.264048 1.8569127,1.8569127 0 0 0 0.293452,-0.02453 q 0.194495,-0.03128 0.411525,-0.10176 a 4.1906126,4.1906126 0 0 0 0.426983,-0.16723 6.8227061,6.8227061 0 0 0 0.12236,-0.05671 q 0.554501,-0.26362 0.805452,-0.514563 a 3.9055281,3.9055281 0 0 0 0.08033,-0.08268 q 0.106905,-0.113559 0.191489,-0.222612 a 2.072229,2.072229 0 0 0 0.15263,-0.22412 1.9964496,1.9964496 0 0 0 0.04335,-0.0781 q 0.0667,-0.127294 0.09061,-0.223686 a 0.40809152,0.40809152 0 0 0 0.01285,-0.0964 0.23077249,0.23077249 0 0 0 -0.0062,-0.05538 q -0.01608,-0.06461 -0.07472,-0.0837 a 0.18096847,0.18096847 0 0 0 -0.05553,-0.0082 q -0.05243,0 -0.104762,0.07344 a 4.4853573,4.4853573 0 0 1 -0.0021,0.003 q -0.05174,0.0723 -0.118932,0.160145 -0.06806,0.08905 -0.267266,0.162504 -0.124511,0.04577 -0.287877,0.06289 a 2.0110476,2.0110476 0 0 1 -0.209945,0.01029 q -0.298827,0 -0.634142,-0.167663 a 37.246668,37.246668 0 0 0 -0.01224,-0.0058 q -0.09062,-0.0453 -0.172619,-0.08566 a 23.176211,23.176211 0 0 0 -0.155853,-0.07599 1.3485701,1.3485701 0 0 1 -0.05631,-0.02897 Q 74.022799,58.837066 73.897,58.752044 a 5.1259383,5.1259383 0 0 1 -0.114847,-0.08045 q -0.180897,-0.129956 -0.305618,-0.215391 a 7.409834,7.409834 0 0 0 -0.07686,-0.05218 q -0.141496,-0.09403 -0.419286,-0.314066 -0.277784,-0.22026 -0.403581,-0.319858 a 11.512431,11.512431 0 0 1 -0.02099,-0.0167 q -0.09393,-0.07476 -0.270622,-0.218113 A 117.6132,117.6132 0 0 1 72.142043,57.419013 Q 71.900528,57.22229 71.789962,57.134488 a 6.4038807,6.4038807 0 0 0 -0.05156,-0.04057 10.510984,10.510984 0 0 0 1.320238,-0.636075 13.514684,13.514684 0 0 0 1.504638,-0.999083 q 1.420476,-1.079791 2.562964,-2.389943 a 22.948658,22.948658 0 0 0 2.043896,-2.720104 q 0.901619,-1.409755 1.394288,-2.746294 a 8.6296032,8.6296032 0 0 0 0.345171,-1.175898 6.3223058,6.3223058 0 0 0 0.147258,-1.324308 2.7499477,2.7499477 0 0 0 -0.162497,-0.952715 2.749734,2.749734 0 0 0 -0.686526,-1.033423 q -0.586891,-0.569268 -1.569874,-0.744654 z m 34.705988,0 a 5.4475175,5.4475175 0 0 0 -0.95615,-0.0784 6.7881442,6.7881442 0 0 0 -0.19571,0.003 q -2.57532,0.07424 -5.50225,2.098198 a 22.897777,22.897777 0 0 0 -2.43619,1.965971 q -2.54699,2.34787 -4.05641,5.576314 a 14.162556,14.162556 0 0 0 -0.0668,0.142326 q -0.750901,1.625046 -0.750901,2.735115 a 3.5150403,3.5150403 0 0 0 0.04153,0.552776 2.5477277,2.5477277 0 0 0 0.629001,1.344494 2.7057266,2.7057266 0 0 0 0.40099,0.365373 1.8202041,1.8202041 0 0 0 1.09792,0.373525 3.0734594,3.0734594 0 0 0 0.28889,-0.01395 q 0.70992,-0.0669 1.53514,-0.457681 a 33.79216,33.79216 0 0 0 0.47094,0.534964 q 2.05895,2.286904 3.47365,2.942943 a 2.4906249,2.4906249 0 0 0 1.03425,0.264037 1.8569127,1.8569127 0 0 0 0.29352,-0.02454 q 0.19442,-0.03128 0.41148,-0.101751 a 4.1906126,4.1906126 0 0 0 0.427,-0.16723 6.8227061,6.8227061 0 0 0 0.12239,-0.05672 q 0.5545,-0.263619 0.80545,-0.514571 a 3.9055281,3.9055281 0 0 0 0.0805,-0.08266 q 0.10681,-0.113566 0.19147,-0.222615 a 2.072229,2.072229 0 0 0 0.15268,-0.224117 1.9964496,1.9964496 0 0 0 0.0429,-0.0781 q 0.0669,-0.127303 0.0902,-0.223685 a 0.40809152,0.40809152 0 0 0 0.0134,-0.0964 0.23077249,0.23077249 0 0 0 -0.007,-0.05541 q -0.0162,-0.06461 -0.0749,-0.0837 a 0.18096847,0.18096847 0 0 0 -0.0555,-0.0082 q -0.0518,0 -0.10473,0.07342 a 4.4853573,4.4853573 0 0 1 -0.002,0.003 q -0.0511,0.07231 -0.11892,0.160144 -0.0685,0.08906 -0.26728,0.162507 -0.12449,0.04577 -0.28781,0.06289 a 2.0110476,2.0110476 0 0 1 -0.20996,0.01029 q -0.2988,0 -0.63411,-0.167662 a 37.246668,37.246668 0 0 0 -0.0123,-0.0058 q -0.0905,-0.04529 -0.17256,-0.08564 a 23.176211,23.176211 0 0 0 -0.15588,-0.07599 1.3485701,1.3485701 0 0 1 -0.0563,-0.02897 q -0.0963,-0.05218 -0.222,-0.137191 a 5.1259383,5.1259383 0 0 1 -0.11477,-0.08035 q -0.18083,-0.129209 -0.30553,-0.214656 a 7.409834,7.409834 0 0 0 -0.0774,-0.05218 q -0.14135,-0.09422 -0.41913,-0.314253 -0.2778,-0.220247 -0.40358,-0.319859 a 11.512431,11.512431 0 0 1 -0.0214,-0.0167 q -0.0941,-0.07476 -0.27068,-0.218104 a 117.6132,117.6132 0 0 1 -0.14323,-0.11614 q -0.2415,-0.196639 -0.35202,-0.284438 a 6.4038807,6.4038807 0 0 0 -0.0512,-0.04057 10.510984,10.510984 0 0 0 1.32025,-0.636077 13.514684,13.514684 0 0 0 1.50467,-0.999087 q 1.42051,-1.079798 2.56295,-2.389943 a 22.948658,22.948658 0 0 0 2.04389,-2.720109 q 0.90157,-1.409757 1.39409,-2.746293 a 8.6296032,8.6296032 0 0 0 0.34542,-1.175769 6.3223058,6.3223058 0 0 0 0.14727,-1.324303 2.7499477,2.7499477 0 0 0 -0.16249,-0.952713 2.749734,2.749734 0 0 0 -0.6865,-1.033433 q -0.58692,-0.569016 -1.56995,-0.744407 z M 82.659034,56.828511 a 3.8233089,3.8233089 0 0 0 0.297953,-0.227334 1.6750855,1.6750855 0 0 0 0.306553,0.45596 1.5832058,1.5832058 0 0 0 0.71271,0.430846 2.0750198,2.0750198 0 0 0 0.581765,0.0775 2.6730966,2.6730966 0 0 0 0.443303,-0.03848 q 0.333594,-0.0561 0.695103,-0.194051 a 5.4382862,5.4382862 0 0 0 0.659258,-0.30742 q 0.990493,-0.539682 1.844886,-1.383563 0.854183,-0.843873 1.567112,-1.802819 a 11.328238,11.328238 0 0 0 0.565441,-0.83335 8.8298876,8.8298876 0 0 0 0.556007,-1.053398 8.1854436,8.1854436 0 0 0 0.07364,-0.172377 q 0.335321,-0.810389 0.335321,-1.337198 a 1.8906166,1.8906166 0 0 0 -0.0047,-0.119357 q -0.01085,-0.174092 -0.0549,-0.318143 a 0.8906746,0.8906746 0 0 0 -0.271121,-0.4272 q -0.165117,-0.141464 -0.326334,-0.212306 a 0.78763169,0.78763169 0 0 0 -0.318107,-0.07062 q -0.3145,0 -0.461333,0.02084 v -0.06294 q 0,-0.05521 -0.05943,-0.122363 a 0.56909553,0.56909553 0 0 0 -0.04534,-0.04531 0.87457422,0.87457422 0 0 0 -0.219385,-0.153273 q -0.140828,-0.07014 -0.319858,-0.102382 a 1.8715107,1.8715107 0 0 0 -0.330817,-0.02723 2.5247572,2.5247572 0 0 0 -0.209521,0.0084 q -0.847307,0.07066 -1.866577,0.704342 a 9.4352646,9.4352646 0 0 0 -0.921796,0.6599 11.315151,11.315151 0 0 0 -1.519879,1.51473 6.7602364,6.7602364 0 0 0 -0.335102,0.437929 7.5070798,7.5070798 0 0 0 -0.812749,1.506568 7.8767458,7.8767458 0 0 0 -0.09745,0.253101 6.2516778,6.2516778 0 0 0 -0.246012,0.842795 21.941195,21.941195 0 0 0 -0.05754,0.06051 34.970279,34.970279 0 0 0 -0.233133,0.248162 4.2440657,4.2440657 0 0 1 -0.302897,0.288945 5.0250425,5.0250425 0 0 1 -0.593143,0.439435 2.8396814,2.8396814 0 0 1 -0.0588,0.03647 q -0.205437,0.123661 -0.404867,0.195355 a 1.5844938,1.5844938 0 0 1 -0.53754,0.09832 1.0568304,1.0568304 0 0 1 -0.124082,-0.0066 q -0.358028,-0.04227 -0.358028,-0.349502 0,-0.196849 0.10132,-0.459398 a 2.7982497,2.7982497 0 0 1 0.10846,-0.242786 q 0.06547,-0.124506 0.120861,-0.226472 a 12.709438,12.709438 0 0 1 0.06248,-0.114203 2.9676252,2.9676252 0 0 1 0.01738,-0.03072 q 0.05497,-0.09618 0.136103,-0.222828 a 9.4234587,9.4234587 0 0 1 0.06668,-0.103044 q 0.114859,-0.174509 0.157365,-0.248778 a 0.62405154,0.62405154 0 0 0 0.01543,-0.02873 q 2.183,-3.760627 2.455849,-4.415166 a 0.43063205,0.43063205 0 0 0 0.03905,-0.12365 0.44866454,0.44866454 0 0 0 -4.33e-4,-0.01564 Q 83.47999,49.27491 83.226516,48.991116 A 1.0626266,1.0626266 0 0 0 83.082535,48.856117 0.71958062,0.71958062 0 0 0 82.634299,48.69791 q -0.252876,0 -0.677718,0.267263 a 4.8215336,4.8215336 0 0 0 -0.276073,0.18869 8.7141811,8.7141811 0 0 0 -0.543333,0.429776 6.529893,6.529893 0 0 0 -0.515423,0.49246 q -0.434927,0.466477 -0.434927,0.576607 0,0.08627 0.132457,0.247095 a 2.0612804,2.0612804 0 0 0 0.08241,0.09359 2.9124554,2.9124554 0 0 1 0.07323,0.08135 q 0.103471,0.119786 0.131382,0.18612 a 0.11141473,0.11141473 0 0 1 0.0103,0.04165 q 0,0.06888 -0.441363,0.791703 a 48.498488,48.498488 0 0 1 -0.135245,0.219824 29.334289,29.334289 0 0 0 -0.432348,0.723225 35.403711,35.403711 0 0 0 -0.720656,1.310366 q -0.414318,0.791069 -0.53088,1.311428 a 1.6911864,1.6911864 0 0 0 -0.04577,0.365594 1.1532179,1.1532179 0 0 0 0.07061,0.393492 q 0.134604,0.373745 0.527026,0.738684 0.597426,0.555573 1.42542,0.555573 a 2.6247943,2.6247943 0 0 0 0.624055,-0.08113 q 0.601723,-0.14748 1.325606,-0.563513 A 4.8105852,4.8105852 0 0 0 82.65873,56.828608 Z M 92.2203,55.18606 92.20999,55.353713 a 0.59592948,0.59592948 0 0 0 0.183762,0.436004 0.77561001,0.77561001 0 0 0 0.01523,0.01482 1.0314988,1.0314988 0 0 0 0.108194,0.09014 q 0.13138,0.09402 0.247731,0.09832 a 0.30097018,0.30097018 0 0 0 0.01089,2.17e-4 7.1709041,7.1709041 0 0 0 1.115862,-0.0829 5.3539201,5.3539201 0 0 0 1.111579,-0.294518 4.7730173,4.7730173 0 0 0 0.329555,-0.14147 q 0.640117,-0.306559 0.640117,-0.613322 a 0.19943033,0.19943033 0 0 0 -0.05247,-0.130743 q -0.06071,-0.07122 -0.190647,-0.133096 a 1.3560829,1.3560829 0 0 0 -0.10799,-0.04527 Q 95.27063,54.420961 94.437461,54.226902 93.604102,54.033055 93.226712,53.92293 92.866493,53.817953 92.649673,53.727147 a 2.522396,2.522396 0 0 1 -0.02035,-0.0082 2.085968,2.085968 0 0 1 -0.250954,-0.129236 2.7164598,2.7164598 0 0 1 -0.199857,-0.13288 1.1255255,1.1255255 0 0 1 -0.479367,-0.816184 1.6999879,1.6999879 0 0 1 -0.01336,-0.216176 1.997523,1.997523 0 0 1 0.193638,-0.843438 2.8624365,2.8624365 0 0 1 0.314711,-0.519295 4.6738392,4.6738392 0 0 1 1.132395,-1.066059 5.342328,5.342328 0 0 1 0.141247,-0.09209 11.053466,11.053466 0 0 1 1.64226,-0.847738 12.361458,12.361458 0 0 1 0.004,-0.002 q 1.123091,-0.46695 2.014894,-0.632459 a 5.005078,5.005078 0 0 1 0.90953,-0.09083 4.1508975,4.1508975 0 0 1 0.466439,0.02402 q 0.48128,0.05451 0.742613,0.23357 a 0.70369483,0.70369483 0 0 1 0.226844,0.245371 0.88444896,0.88444896 0 0 1 0.07899,0.29088 1.0793708,1.0793708 0 0 1 0.0053,0.107554 v 0.07344 q 0,0.555353 -0.235914,0.869853 a 1.4696445,1.4696445 0 0 1 -0.236492,0.245149 q -0.20568,0.171521 -0.507492,0.320938 -0.434977,0.215311 -0.71658,0.246229 a 0.82713113,0.82713113 0 0 1 -0.09063,0.0058 3.4308886,3.4308886 0 0 1 -0.104318,-0.002 q -0.163352,-0.0053 -0.23806,-0.02685 a 0.18612065,0.18612065 0 0 1 -0.03487,-0.01357 0.401222,0.401222 0 0 1 -0.13089,-0.110128 q -0.05214,-0.06826 -0.131174,-0.09961 -0.07885,-0.03128 -0.07885,-0.157138 a 0.33703508,0.33703508 0 0 1 0.02903,-0.133311 q 0.01976,-0.04594 0.05236,-0.09253 a 0.66569799,0.66569799 0 0 1 0.02336,-0.03114 0.83357124,0.83357124 0 0 0 0.110155,-0.17754 0.73117291,0.73117291 0 0 0 0.03644,-0.100244 q -0.691848,0.03152 -1.446403,0.319862 a 7.9666936,7.9666936 0 0 0 -0.660353,0.285085 q -0.325671,0.159558 -0.598098,0.33602 a 4.8269004,4.8269004 0 0 0 -0.03628,0.02363 q -0.459189,0.303116 -0.785704,0.58369 a 4.9821083,4.9821083 0 0 0 -0.11034,0.09745 3.2230856,3.2230856 0 0 0 -0.130092,0.124942 q -0.179467,0.182903 -0.216604,0.297104 a 0.17839246,0.17839246 0 0 0 -0.0097,0.05494 q 0,0.151995 0.482157,0.246231 2.169668,0.429777 2.851002,0.74427 a 3.5948979,3.5948979 0 0 1 0.382791,0.203512 q 0.177999,0.109907 0.312359,0.228835 a 1.4189818,1.4189818 0 0 1 0.24818,0.280577 q 0.262054,0.398257 0.262054,0.723274 0,0.670855 -0.534589,1.268276 a 4.0768363,4.0768363 0 0 1 -1.081221,0.851664 4.7824639,4.7824639 0 0 1 -0.239398,0.123221 q -1.162434,0.570386 -2.11837,0.747917 a 4.5068245,4.5068245 0 0 1 -0.821981,0.08008 6.4498206,6.4498206 0 0 1 -0.577678,-0.02387 q -0.566086,-0.05109 -0.910424,-0.21167 A 1.1819837,1.1819837 0 0 1 91.324679,57.287233 1.463848,1.463848 0 0 1 91.053127,57.007519 1.0428765,1.0428765 0 0 1 90.847682,56.380677 1.8504727,1.8504727 0 0 1 91.11495,55.411 q 0.267266,-0.445448 0.68652,-0.445448 0.251808,0 0.352491,0.07944 a 0.17023492,0.17023492 0 0 1 0.06669,0.140623 z M 78.170876,43.991344 a 2.1954504,2.1954504 0 0 0 -0.0067,0 q -1.844892,0 -3.778874,1.03235 a 15.385762,15.385762 0 0 0 -2.785771,1.923249 18.112951,18.112951 0 0 0 -0.877578,0.807383 16.560016,16.560016 0 0 0 -2.866945,3.726276 q -0.941587,1.679162 -1.103445,2.780005 a 2.977286,2.977286 0 0 0 -0.03374,0.432778 q 0,0.545052 0.27242,0.765306 0.58691,0 1.933978,-0.70756 a 8.1489497,8.1489497 0 0 0 2.363754,-1.871078 0.84151418,0.84151418 0 0 1 0.04356,-0.04082 q 0.06695,-0.05822 0.110127,-0.06358 a 0.06976837,0.06976837 0 0 1 0.0082,-4.31e-4 0.14082481,0.14082481 0 0 1 0.02816,0.003 q 0.01627,0.004 0.02838,0.01064 a 0.06504557,0.06504557 0 0 1 0.02232,0.02339 1.0475991,1.0475991 0 0 0 0.01163,0.01969 q 0.0193,0.0322 0.05752,0.09253 a 15.25953,15.25953 0 0 0 0.02514,0.03977 q 0.07342,0.115288 0.136314,0.230566 a 1.5233127,1.5233127 0 0 1 0.166156,0.644872 1.7991662,1.7991662 0 0 1 0.0018,0.07308 q 0,0.344113 -0.216598,0.724089 a 2.4058289,2.4058289 0 0 1 -0.06633,0.109266 2.2325888,2.2325888 0 0 1 -0.200291,0.260402 q -0.235928,0.268983 -0.639936,0.61031 a 12.662428,12.662428 0 0 1 -0.333811,0.271931 3.7825211,3.7825211 0 0 0 0.671711,-0.328236 q 0.678794,-0.407665 1.561737,-1.198301 a 24.007413,24.007413 0 0 0 0.911084,-0.863424 q 1.991723,-1.98121 3.238971,-3.747316 1.24746,-1.766323 1.781994,-3.050272 a 15.929312,15.929312 0 0 0 0.208272,-0.52447 q 0.29367,-0.782487 0.323081,-1.179195 a 1.132395,1.132395 0 0 0 0.004,-0.08345 q 0,-0.919438 -0.999298,-0.92244 z m 34.705984,0 a 2.1954504,2.1954504 0 0 0 -0.008,0 q -1.84489,0 -3.77887,1.03235 a 15.385762,15.385762 0 0 0 -2.78574,1.923249 18.112951,18.112951 0 0 0 -0.87761,0.807383 16.560016,16.560016 0 0 0 -2.86693,3.726276 q -0.94158,1.679162 -1.10364,2.780005 a 2.977286,2.977286 0 0 0 -0.0334,0.432778 q 0,0.545052 0.27266,0.765306 0.58695,0 1.93397,-0.70756 a 8.1489497,8.1489497 0 0 0 2.36378,-1.871078 0.84151418,0.84151418 0 0 1 0.0431,-0.04082 q 0.0669,-0.05822 0.1101,-0.06358 a 0.06976837,0.06976837 0 0 1 0.01,-4.31e-4 0.14082481,0.14082481 0 0 1 0.0283,0.003 q 0.0161,0.004 0.028,0.01064 a 0.06504557,0.06504557 0 0 1 0.0227,0.02339 1.0475991,1.0475991 0 0 0 0.0119,0.01969 q 0.0196,0.0322 0.0579,0.09253 a 15.25953,15.25953 0 0 0 0.0255,0.03977 q 0.0734,0.115288 0.13635,0.230566 a 1.5233127,1.5233127 0 0 1 0.16612,0.644872 1.7991662,1.7991662 0 0 1 0.002,0.07308 q 0,0.344113 -0.21663,0.724089 a 2.4058289,2.4058289 0 0 1 -0.0664,0.109266 2.2325888,2.2325888 0 0 1 -0.20022,0.260402 q -0.2362,0.268983 -0.63996,0.61031 a 12.662428,12.662428 0 0 1 -0.33384,0.271991 3.7825211,3.7825211 0 0 0 0.67177,-0.328235 q 0.67878,-0.407669 1.5617,-1.198305 a 24.007413,24.007413 0 0 0 0.91106,-0.863404 q 1.99171,-1.981213 3.23895,-3.747321 1.24748,-1.766319 1.78205,-3.050269 a 15.929312,15.929312 0 0 0 0.20818,-0.524445 q 0.29373,-0.782487 0.3231,-1.179198 a 1.132395,1.132395 0 0 0 0.004,-0.08346 q 0,-0.919441 -0.99923,-0.922438 z m 5.80673,11.078794 a 2.5221822,2.5221822 0 0 0 0.005,-0.146194 q 0,-0.94327 -0.27243,-0.94327 a 0.0394997,0.0394997 0 0 0 -0.005,2.15e-4 q -0.14491,0.01292 -1.11807,1.058547 a 4.2440657,4.2440657 0 0 1 -0.30286,0.28895 5.0250425,5.0250425 0 0 1 -0.59333,0.439421 2.8396814,2.8396814 0 0 1 -0.0592,0.03649 q -0.20542,0.12365 -0.40486,0.195346 a 1.5844938,1.5844938 0 0 1 -0.53746,0.09833 1.0568304,1.0568304 0 0 1 -0.12413,-0.0066 q -0.35807,-0.04224 -0.35807,-0.349485 0,-0.196854 0.10131,-0.459397 a 2.7982497,2.7982497 0 0 1 0.10841,-0.242756 q 0.0653,-0.124506 0.12085,-0.226472 a 12.709438,12.709438 0 0 1 0.0627,-0.114209 2.9676252,2.9676252 0 0 1 0.0175,-0.03067 q 0.0547,-0.09618 0.13588,-0.22283 a 9.4234587,9.4234587 0 0 1 0.0671,-0.103045 q 0.11481,-0.174529 0.1572,-0.248803 a 0.62405154,0.62405154 0 0 0 0.0156,-0.02872 q 2.18305,-3.760621 2.4559,-4.41516 a 0.43063205,0.43063205 0 0 0 0.0391,-0.123648 0.44866454,0.44866454 0 0 0 -2.5e-4,-0.01564 q -0.01,-0.235077 -0.26171,-0.518871 a 1.0626266,1.0626266 0 0 0 -0.14399,-0.135246 0.71958062,0.71958062 0 0 0 -0.44831,-0.158209 q -0.2528,0 -0.67768,0.267262 a 4.8215336,4.8215336 0 0 0 -0.27608,0.188695 8.7141811,8.7141811 0 0 0 -0.54337,0.429775 6.529893,6.529893 0 0 0 -0.5154,0.492461 q -0.43493,0.466477 -0.43493,0.576605 0,0.08628 0.13247,0.247093 a 2.0612804,2.0612804 0 0 0 0.0827,0.0936 2.9124554,2.9124554 0 0 1 0.073,0.08138 q 0.10344,0.119783 0.13135,0.186123 a 0.11141473,0.11141473 0 0 1 0.0103,0.04163 q 0,0.06888 -0.44161,0.791707 a 48.498488,48.498488 0 0 1 -0.13502,0.219823 29.334289,29.334289 0 0 0 -0.4323,0.723231 35.403711,35.403711 0 0 0 -0.72072,1.310358 q -0.41422,0.79107 -0.53088,1.311433 a 1.6911864,1.6911864 0 0 0 -0.0456,0.36559 1.1532179,1.1532179 0 0 0 0.0704,0.393489 q 0.13481,0.373747 0.52724,0.738688 0.59742,0.555575 1.42541,0.555575 a 2.6247943,2.6247943 0 0 0 0.6241,-0.08111 q 0.60169,-0.147481 1.3256,-0.563513 a 4.8105852,4.8105852 0 0 0 0.37564,-0.239151 3.8233089,3.8233089 0 0 0 1.25951,-1.453758 q 0.0472,-0.102185 0.0598,-0.304617 z M 89.264476,50.689327 h -0.0734 q -0.305901,0 -0.356778,-0.371605 a 1.206886,1.206886 0 0 1 -0.01007,-0.162936 4.5982742,4.5982742 0 0 0 -0.733542,0.318572 q -0.344976,0.185055 -0.703908,0.440296 a 8.1822251,8.1822251 0 0 0 -0.166374,0.121506 7.7507333,7.7507333 0 0 0 -1.498839,1.488537 q -1.139692,1.460202 -1.326457,2.534639 a 2.4026094,2.4026094 0 0 0 -0.03628,0.368797 q 0,0.56995 0.405299,0.586484 a 0.60258441,0.60258441 0 0 0 0.02448,6.48e-4 q 0.327377,0 0.89776,-0.328452 a 6.8589859,6.8589859 0 0 0 0.381042,-0.237639 q 0.734604,-0.489886 1.457623,-1.340414 a 10.859399,10.859399 0 0 0 0.224766,-0.273926 19.084986,19.084986 0 0 0 0.523371,-0.6878 q 0.226262,-0.312568 0.407232,-0.59529 a 8.1854436,8.1854436 0 0 0 0.316857,-0.535392 q 0.365372,-0.67987 0.408308,-0.976113 a 0.50598195,0.50598195 0 0 0 0.0057,-0.07209 0.78741697,0.78741697 0 0 0 -0.0054,-0.09359 q -0.01142,-0.09449 -0.04827,-0.140399 a 0.11377621,0.11377621 0 0 0 -0.09343,-0.04382 z m -3.732499,-4.2986 a 1.4232753,1.4232753 0 0 0 0.147697,-0.617607 0.77518064,0.77518064 0 0 0 -0.01806,-0.172167 0.51392478,0.51392478 0 0 0 -0.149838,-0.267905 0.56265539,0.56265539 0 0 0 -0.262119,-0.136969 0.82713113,0.82713113 0 0 0 -0.188483,-0.02036 1.408893,1.408893 0 0 0 -0.782909,0.240218 2.0748053,2.0748053 0 0 0 -0.385982,0.331017 2.3021432,2.3021432 0 0 0 -0.311923,0.418185 1.5540108,1.5540108 0 0 0 -0.217244,0.782049 q 0,0.486452 0.360434,0.596788 a 0.82906354,0.82906354 0 0 0 0.242154,0.0322 q 0.414958,0 0.80759,-0.285729 a 2.4077615,2.4077615 0 0 0 0.350778,-0.317073 q 0.268981,-0.291955 0.407876,-0.582623 z m 34.706053,0 a 1.4232753,1.4232753 0 0 0 0.14767,-0.617607 0.77518064,0.77518064 0 0 0 -0.0183,-0.172167 0.51392478,0.51392478 0 0 0 -0.14957,-0.267905 0.56265539,0.56265539 0 0 0 -0.2622,-0.136969 0.82713113,0.82713113 0 0 0 -0.18838,-0.02036 1.408893,1.408893 0 0 0 -0.7829,0.240218 2.0748053,2.0748053 0 0 0 -0.38602,0.331017 2.3021432,2.3021432 0 0 0 -0.3119,0.418185 1.5540108,1.5540108 0 0 0 -0.2173,0.782049 q 0,0.486452 0.36049,0.596788 a 0.82906354,0.82906354 0 0 0 0.24214,0.0322 q 0.41491,0 0.80756,-0.285729 a 2.4077615,2.4077615 0 0 0 0.35087,-0.317073 q 0.26887,-0.291955 0.40782,-0.582623 z"
         vector-effect="non-scaling-stroke"
         id="path1573"
         style="font-size:12px;fill:#212121;fill-rule:evenodd;stroke:#212121;stroke-width:0.053668mm;stroke-linecap:round" />
      <g
         id="Layer_1-2"
         data-name="Layer 1"
         transform="matrix(0.26458333,0,0,0.26458333,27.236193,35.546393)">
        <path
           class="cls-1"
           d="M 67.89,57.14 A 10.83,10.83 0 1 1 57.07,46.31 10.81,10.81 0 0 1 67.89,57.14 Z"
           id="path1590" />
        <path
           class="cls-1"
           d="M 57.07,0 A 57.08,57.08 0 1 0 83,107.92 l -13.65,-16.18 -1,-1.18 A 35.3,35.3 0 1 1 89.08,72.07 l 1.53,1.81 13.32,15.78 A 57.07,57.07 0 0 0 57.07,0 Z"
           id="path1592" />
        <polygon
           class="cls-2"
           points="88.32,75.82 102.1,92.14 102.79,92.96 108.78,100.06 92.2,114.15 86.14,106.97 85.71,106.46 71.64,89.81 71.31,89.42 64.14,80.93 80.77,66.88 87.57,74.93 "
           id="polygon1594" />
      </g>
    </g>
  </g>
</svg>
