<svg xmlns="http://www.w3.org/2000/svg" viewBox="0 0 114.15 114.15"><defs><style>.cls-1{fill:#212121;}.cls-2{fill:#ffc107;}</style></defs><g id="Layer_2" data-name="Layer 2"><g id="Layer_1-2" data-name="Layer 1"><path class="cls-1" d="M67.89,57.14A10.83,10.83,0,1,1,57.07,46.31,10.81,10.81,0,0,1,67.89,57.14Z"/><path class="cls-1" d="M57.07,0A57.08,57.08,0,1,0,83,107.92L69.35,91.74l-1-1.18A35.3,35.3,0,1,1,89.08,72.07l1.53,1.81,13.32,15.78A57.07,57.07,0,0,0,57.07,0Z"/><polygon class="cls-2" points="108.78 100.06 92.2 114.15 86.14 106.97 85.71 106.46 71.64 89.81 71.31 89.42 64.14 80.93 80.77 66.88 87.57 74.93 88.32 75.82 102.1 92.14 102.79 92.96 108.78 100.06"/></g></g></svg>