<svg width="259.522" height="85.84" viewBox="0 0 259.522 85.84" xmlns="http://www.w3.org/2000/svg"><g id="svgGroup" stroke-linecap="round" fill-rule="evenodd" font-size="9pt" stroke="#212121" stroke-width="0.25mm" fill="#212121" style="stroke:#212121;stroke-width:0.25mm;fill:#212121"><path d="M 65.05 0.366 A 25.376 25.376 0 0 0 60.596 0.001 A 31.621 31.621 0 0 0 59.684 0.014 Q 47.688 0.36 34.053 9.788 A 106.664 106.664 0 0 0 22.705 18.946 Q 10.84 29.883 3.809 44.922 A 65.973 65.973 0 0 0 3.498 45.585 Q 0 53.155 0 58.326 A 16.374 16.374 0 0 0 0.195 60.901 A 11.868 11.868 0 0 0 3.125 67.164 A 12.604 12.604 0 0 0 4.993 68.866 A 8.479 8.479 0 0 0 10.108 70.606 A 14.317 14.317 0 0 0 11.453 70.541 Q 14.76 70.229 18.604 68.409 A 157.413 157.413 0 0 0 20.799 70.901 Q 30.389 81.554 36.979 84.61 A 11.602 11.602 0 0 0 41.797 85.84 A 8.65 8.65 0 0 0 43.164 85.726 Q 44.07 85.58 45.081 85.252 A 19.521 19.521 0 0 0 47.07 84.473 A 31.782 31.782 0 0 0 47.64 84.209 Q 50.223 82.981 51.392 81.812 A 18.193 18.193 0 0 0 51.766 81.427 Q 52.264 80.898 52.658 80.39 A 9.653 9.653 0 0 0 53.369 79.346 A 9.3 9.3 0 0 0 53.571 78.982 Q 53.882 78.389 53.993 77.94 A 1.901 1.901 0 0 0 54.053 77.491 A 1.075 1.075 0 0 0 54.025 77.233 Q 53.95 76.932 53.677 76.843 A 0.843 0.843 0 0 0 53.418 76.807 Q 53.174 76.807 52.93 77.149 A 20.894 20.894 0 0 1 52.922 77.16 Q 52.681 77.497 52.368 77.906 Q 52.051 78.321 51.123 78.663 Q 50.543 78.876 49.782 78.956 A 9.368 9.368 0 0 1 48.804 79.004 Q 47.412 79.004 45.85 78.223 A 173.505 173.505 0 0 0 45.793 78.195 Q 45.371 77.984 44.989 77.796 A 107.961 107.961 0 0 0 44.263 77.442 A 6.282 6.282 0 0 1 44.001 77.307 Q 43.553 77.064 42.967 76.668 A 23.878 23.878 0 0 1 42.432 76.294 Q 41.589 75.69 41.008 75.292 A 34.517 34.517 0 0 0 40.65 75.049 Q 39.99 74.61 38.696 73.585 Q 37.402 72.559 36.816 72.095 A 53.628 53.628 0 0 1 36.718 72.017 Q 36.28 71.669 35.457 71.001 A 547.874 547.874 0 0 1 34.79 70.46 Q 33.665 69.544 33.15 69.135 A 29.831 29.831 0 0 0 32.91 68.946 A 48.963 48.963 0 0 0 39.06 65.983 A 62.955 62.955 0 0 0 46.069 61.329 Q 52.686 56.299 58.008 50.196 A 106.901 106.901 0 0 0 67.529 37.525 Q 71.729 30.958 74.024 24.732 A 40.199 40.199 0 0 0 75.632 19.255 A 29.451 29.451 0 0 0 76.318 13.086 A 12.81 12.81 0 0 0 75.561 8.648 A 12.809 12.809 0 0 0 72.363 3.834 Q 69.629 1.183 65.05 0.366 Z M 226.72 0.366 A 25.376 25.376 0 0 0 222.266 0.001 A 31.621 31.621 0 0 0 221.354 0.014 Q 209.358 0.36 195.723 9.788 A 106.664 106.664 0 0 0 184.375 18.946 Q 172.51 29.883 165.479 44.922 A 65.973 65.973 0 0 0 165.168 45.585 Q 161.67 53.155 161.67 58.326 A 16.374 16.374 0 0 0 161.865 60.901 A 11.868 11.868 0 0 0 164.795 67.164 A 12.604 12.604 0 0 0 166.663 68.866 A 8.479 8.479 0 0 0 171.777 70.606 A 14.317 14.317 0 0 0 173.123 70.541 Q 176.43 70.229 180.274 68.409 A 157.413 157.413 0 0 0 182.468 70.901 Q 192.059 81.554 198.649 84.61 A 11.602 11.602 0 0 0 203.467 85.84 A 8.65 8.65 0 0 0 204.834 85.726 Q 205.74 85.58 206.751 85.252 A 19.521 19.521 0 0 0 208.74 84.473 A 31.782 31.782 0 0 0 209.31 84.209 Q 211.893 82.981 213.062 81.812 A 18.193 18.193 0 0 0 213.436 81.427 Q 213.934 80.898 214.328 80.39 A 9.653 9.653 0 0 0 215.039 79.346 A 9.3 9.3 0 0 0 215.241 78.982 Q 215.552 78.389 215.662 77.94 A 1.901 1.901 0 0 0 215.723 77.491 A 1.075 1.075 0 0 0 215.695 77.233 Q 215.62 76.932 215.347 76.843 A 0.843 0.843 0 0 0 215.088 76.807 Q 214.844 76.807 214.6 77.149 A 20.894 20.894 0 0 1 214.592 77.16 Q 214.351 77.497 214.038 77.906 Q 213.721 78.321 212.793 78.663 Q 212.213 78.876 211.452 78.956 A 9.368 9.368 0 0 1 210.474 79.004 Q 209.082 79.004 207.52 78.223 A 173.505 173.505 0 0 0 207.463 78.195 Q 207.041 77.984 206.659 77.796 A 107.961 107.961 0 0 0 205.933 77.442 A 6.282 6.282 0 0 1 205.671 77.307 Q 205.223 77.064 204.637 76.668 A 23.878 23.878 0 0 1 204.102 76.294 Q 203.259 75.69 202.678 75.292 A 34.517 34.517 0 0 0 202.319 75.049 Q 201.66 74.61 200.366 73.585 Q 199.072 72.559 198.486 72.095 A 53.628 53.628 0 0 1 198.388 72.017 Q 197.95 71.669 197.127 71.001 A 547.874 547.874 0 0 1 196.46 70.46 Q 195.335 69.544 194.82 69.135 A 29.831 29.831 0 0 0 194.58 68.946 A 48.963 48.963 0 0 0 200.73 65.983 A 62.955 62.955 0 0 0 207.739 61.329 Q 214.356 56.299 219.678 50.196 A 106.901 106.901 0 0 0 229.199 37.525 Q 233.399 30.958 235.693 24.732 A 40.199 40.199 0 0 0 237.302 19.255 A 29.451 29.451 0 0 0 237.988 13.086 A 12.81 12.81 0 0 0 237.231 8.648 A 12.809 12.809 0 0 0 234.033 3.834 Q 231.299 1.183 226.72 0.366 Z M 83.781 67.71 A 17.81 17.81 0 0 0 85.169 66.651 A 7.803 7.803 0 0 0 86.597 68.775 A 7.375 7.375 0 0 0 89.917 70.782 A 9.666 9.666 0 0 0 92.627 71.143 A 12.452 12.452 0 0 0 94.692 70.964 Q 96.246 70.703 97.93 70.06 A 25.333 25.333 0 0 0 101.001 68.628 Q 105.615 66.114 109.595 62.183 Q 113.574 58.252 116.895 53.785 A 52.77 52.77 0 0 0 119.529 49.903 A 41.132 41.132 0 0 0 122.119 44.996 A 38.13 38.13 0 0 0 122.462 44.193 Q 124.024 40.418 124.024 37.964 A 8.807 8.807 0 0 0 124.006 37.408 Q 123.955 36.597 123.75 35.926 A 4.149 4.149 0 0 0 122.485 33.936 Q 121.716 33.277 120.965 32.947 A 3.669 3.669 0 0 0 119.483 32.618 Q 118.018 32.618 117.334 32.715 L 117.334 32.422 Q 117.334 32.165 117.057 31.852 A 2.651 2.651 0 0 0 116.846 31.641 A 4.074 4.074 0 0 0 115.824 30.927 Q 115.168 30.6 114.334 30.45 A 8.718 8.718 0 0 0 112.793 30.323 A 11.761 11.761 0 0 0 111.817 30.364 Q 107.87 30.693 103.122 33.645 A 43.952 43.952 0 0 0 98.828 36.719 A 52.709 52.709 0 0 0 91.748 43.775 A 31.491 31.491 0 0 0 90.187 45.815 A 34.97 34.97 0 0 0 86.401 52.833 A 36.692 36.692 0 0 0 85.947 54.012 A 29.122 29.122 0 0 0 84.801 57.938 A 102.208 102.208 0 0 0 84.533 58.22 A 162.901 162.901 0 0 0 83.447 59.376 A 19.77 19.77 0 0 1 82.036 60.722 A 23.408 23.408 0 0 1 79.273 62.769 A 13.228 13.228 0 0 1 78.999 62.939 Q 78.042 63.515 77.113 63.849 A 7.381 7.381 0 0 1 74.609 64.307 A 4.923 4.923 0 0 1 74.031 64.275 Q 72.363 64.078 72.363 62.647 Q 72.363 61.73 72.835 60.507 A 13.035 13.035 0 0 1 73.34 59.376 Q 73.645 58.796 73.903 58.321 A 59.204 59.204 0 0 1 74.194 57.789 A 13.824 13.824 0 0 1 74.275 57.646 Q 74.531 57.198 74.909 56.608 A 43.897 43.897 0 0 1 75.22 56.128 Q 75.755 55.315 75.953 54.969 A 2.907 2.907 0 0 0 76.025 54.835 Q 86.194 37.317 87.465 34.268 A 2.006 2.006 0 0 0 87.647 33.692 A 2.09 2.09 0 0 0 87.645 33.619 Q 87.607 32.524 86.426 31.202 A 4.95 4.95 0 0 0 85.755 30.572 A 3.352 3.352 0 0 0 83.667 29.835 Q 82.489 29.835 80.51 31.08 A 22.46 22.46 0 0 0 79.224 31.959 A 40.593 40.593 0 0 0 76.693 33.961 A 30.418 30.418 0 0 0 74.292 36.255 Q 72.266 38.428 72.266 38.941 Q 72.266 39.343 72.883 40.092 A 9.602 9.602 0 0 0 73.267 40.528 A 13.567 13.567 0 0 1 73.608 40.907 Q 74.09 41.465 74.22 41.774 A 0.519 0.519 0 0 1 74.268 41.968 Q 74.268 42.289 72.212 45.656 A 225.919 225.919 0 0 1 71.582 46.68 A 136.647 136.647 0 0 0 69.568 50.049 A 164.92 164.92 0 0 0 66.211 56.153 Q 64.281 59.838 63.738 62.262 A 7.878 7.878 0 0 0 63.525 63.965 A 5.372 5.372 0 0 0 63.854 65.798 Q 64.481 67.539 66.309 69.239 Q 69.092 71.827 72.949 71.827 A 12.227 12.227 0 0 0 75.856 71.449 Q 78.659 70.762 82.031 68.824 A 22.409 22.409 0 0 0 83.781 67.71 Z M 128.32 60.059 L 128.272 60.84 A 2.776 2.776 0 0 0 129.128 62.871 A 3.613 3.613 0 0 0 129.199 62.94 A 4.805 4.805 0 0 0 129.703 63.36 Q 130.315 63.798 130.857 63.818 A 1.402 1.402 0 0 0 130.908 63.819 A 33.404 33.404 0 0 0 136.106 63.433 A 24.94 24.94 0 0 0 141.284 62.061 A 22.234 22.234 0 0 0 142.819 61.402 Q 145.801 59.974 145.801 58.545 A 0.929 0.929 0 0 0 145.556 57.936 Q 145.274 57.604 144.668 57.316 A 6.317 6.317 0 0 0 144.165 57.105 Q 142.529 56.495 138.648 55.591 Q 134.766 54.688 133.008 54.175 Q 131.33 53.686 130.32 53.263 A 11.75 11.75 0 0 1 130.225 53.223 A 9.717 9.717 0 0 1 129.056 52.621 A 12.654 12.654 0 0 1 128.125 52.002 A 5.243 5.243 0 0 1 125.892 48.2 A 7.919 7.919 0 0 1 125.83 47.193 A 9.305 9.305 0 0 1 126.732 43.264 A 13.334 13.334 0 0 1 128.198 40.845 A 21.772 21.772 0 0 1 133.473 35.879 A 24.886 24.886 0 0 1 134.131 35.45 A 51.49 51.49 0 0 1 141.781 31.501 A 57.583 57.583 0 0 1 141.797 31.495 Q 147.029 29.32 151.183 28.549 A 23.315 23.315 0 0 1 155.42 28.126 A 19.336 19.336 0 0 1 157.593 28.238 Q 159.835 28.492 161.052 29.326 A 3.278 3.278 0 0 1 162.109 30.469 A 4.12 4.12 0 0 1 162.476 31.824 A 5.028 5.028 0 0 1 162.5 32.325 L 162.5 32.667 Q 162.5 35.254 161.401 36.719 A 6.846 6.846 0 0 1 160.299 37.861 Q 159.341 38.66 157.935 39.356 Q 155.909 40.359 154.597 40.503 A 3.853 3.853 0 0 1 154.175 40.528 A 15.982 15.982 0 0 1 153.689 40.521 Q 152.928 40.498 152.58 40.396 A 0.867 0.867 0 0 1 152.417 40.333 A 1.869 1.869 0 0 1 151.807 39.82 Q 151.563 39.502 151.196 39.356 Q 150.83 39.21 150.83 38.624 A 1.57 1.57 0 0 1 150.964 38.003 Q 151.055 37.789 151.209 37.572 A 3.101 3.101 0 0 1 151.318 37.427 A 3.883 3.883 0 0 0 151.831 36.6 A 3.406 3.406 0 0 0 152.002 36.133 Q 148.779 36.28 145.264 37.623 A 37.111 37.111 0 0 0 142.188 38.951 Q 140.671 39.694 139.402 40.516 A 22.485 22.485 0 0 0 139.233 40.626 Q 137.094 42.038 135.573 43.345 A 23.208 23.208 0 0 0 135.059 43.799 A 15.014 15.014 0 0 0 134.453 44.381 Q 133.617 45.233 133.444 45.765 A 0.831 0.831 0 0 0 133.399 46.021 Q 133.399 46.729 135.645 47.168 Q 145.752 49.17 148.926 50.635 A 16.746 16.746 0 0 1 150.709 51.583 Q 151.538 52.095 152.164 52.649 A 6.61 6.61 0 0 1 153.32 53.956 Q 154.541 55.811 154.541 57.325 Q 154.541 60.45 152.051 63.233 A 18.991 18.991 0 0 1 147.014 67.2 A 22.278 22.278 0 0 1 145.899 67.774 Q 140.484 70.431 136.031 71.258 A 20.994 20.994 0 0 1 132.202 71.631 A 30.045 30.045 0 0 1 129.511 71.52 Q 126.874 71.282 125.27 70.534 A 5.506 5.506 0 0 1 124.146 69.849 A 6.819 6.819 0 0 1 122.881 68.546 A 4.858 4.858 0 0 1 121.924 65.626 A 8.62 8.62 0 0 1 123.169 61.109 Q 124.414 59.034 126.367 59.034 Q 127.54 59.034 128.009 59.404 A 0.793 0.793 0 0 1 128.32 60.059 Z M 62.874 7.911 A 10.227 10.227 0 0 0 62.842 7.911 Q 54.248 7.911 45.239 12.72 A 71.671 71.671 0 0 0 32.262 21.679 A 84.375 84.375 0 0 0 28.174 25.44 A 77.141 77.141 0 0 0 14.819 42.798 Q 10.433 50.62 9.679 55.748 A 13.869 13.869 0 0 0 9.522 57.764 Q 9.522 60.303 10.791 61.329 Q 13.525 61.329 19.8 58.033 A 37.96 37.96 0 0 0 30.811 49.317 A 3.92 3.92 0 0 1 31.014 49.127 Q 31.326 48.856 31.527 48.831 A 0.325 0.325 0 0 1 31.567 48.829 A 0.656 0.656 0 0 1 31.698 48.841 Q 31.774 48.856 31.83 48.891 A 0.303 0.303 0 0 1 31.934 49 A 4.88 4.88 0 0 0 31.988 49.092 Q 32.078 49.242 32.256 49.523 A 71.083 71.083 0 0 0 32.373 49.708 Q 32.715 50.245 33.008 50.782 A 7.096 7.096 0 0 1 33.782 53.786 A 8.381 8.381 0 0 1 33.789 54.126 Q 33.789 55.729 32.78 57.499 A 11.207 11.207 0 0 1 32.471 58.008 A 10.4 10.4 0 0 1 31.538 59.221 Q 30.439 60.474 28.557 62.064 A 58.985 58.985 0 0 1 27.002 63.331 A 17.62 17.62 0 0 0 30.131 61.802 Q 33.293 59.903 37.406 56.22 A 111.833 111.833 0 0 0 41.65 52.198 Q 50.928 42.969 56.738 34.742 Q 62.549 26.514 65.039 20.533 A 74.203 74.203 0 0 0 66.009 18.09 Q 67.377 14.445 67.514 12.597 A 5.275 5.275 0 0 0 67.529 12.208 Q 67.529 7.925 62.874 7.911 Z M 224.544 7.911 A 10.227 10.227 0 0 0 224.512 7.911 Q 215.918 7.911 206.909 12.72 A 71.671 71.671 0 0 0 193.932 21.679 A 84.375 84.375 0 0 0 189.844 25.44 A 77.141 77.141 0 0 0 176.489 42.798 Q 172.103 50.62 171.348 55.748 A 13.869 13.869 0 0 0 171.191 57.764 Q 171.191 60.303 172.461 61.329 Q 175.195 61.329 181.47 58.033 A 37.96 37.96 0 0 0 192.481 49.317 A 3.92 3.92 0 0 1 192.684 49.127 Q 192.995 48.856 193.197 48.831 A 0.325 0.325 0 0 1 193.237 48.829 A 0.656 0.656 0 0 1 193.368 48.841 Q 193.444 48.856 193.5 48.891 A 0.303 0.303 0 0 1 193.604 49 A 4.88 4.88 0 0 0 193.658 49.092 Q 193.748 49.242 193.926 49.523 A 71.083 71.083 0 0 0 194.043 49.708 Q 194.385 50.245 194.678 50.782 A 7.096 7.096 0 0 1 195.452 53.786 A 8.381 8.381 0 0 1 195.459 54.126 Q 195.459 55.729 194.45 57.499 A 11.207 11.207 0 0 1 194.141 58.008 A 10.4 10.4 0 0 1 193.208 59.221 Q 192.108 60.474 190.227 62.064 A 58.985 58.985 0 0 1 188.672 63.331 A 17.62 17.62 0 0 0 191.801 61.802 Q 194.963 59.903 199.076 56.22 A 111.833 111.833 0 0 0 203.32 52.198 Q 212.598 42.969 218.408 34.742 Q 224.219 26.514 226.709 20.533 A 74.203 74.203 0 0 0 227.679 18.09 Q 229.047 14.445 229.184 12.597 A 5.275 5.275 0 0 0 229.199 12.208 Q 229.199 7.925 224.544 7.911 Z M 251.593 59.519 A 11.749 11.749 0 0 0 251.611 58.838 Q 251.611 54.444 250.342 54.444 A 0.184 0.184 0 0 0 250.325 54.445 Q 249.65 54.505 245.117 59.376 A 19.77 19.77 0 0 1 243.706 60.722 A 23.408 23.408 0 0 1 240.942 62.769 A 13.228 13.228 0 0 1 240.669 62.939 Q 239.712 63.515 238.783 63.849 A 7.381 7.381 0 0 1 236.279 64.307 A 4.923 4.923 0 0 1 235.701 64.275 Q 234.033 64.078 234.033 62.647 Q 234.033 61.73 234.505 60.507 A 13.035 13.035 0 0 1 235.01 59.376 Q 235.315 58.796 235.573 58.321 A 59.204 59.204 0 0 1 235.864 57.789 A 13.824 13.824 0 0 1 235.945 57.646 Q 236.201 57.198 236.578 56.608 A 43.897 43.897 0 0 1 236.89 56.128 Q 237.425 55.315 237.622 54.969 A 2.907 2.907 0 0 0 237.695 54.835 Q 247.864 37.317 249.135 34.268 A 2.006 2.006 0 0 0 249.316 33.692 A 2.09 2.09 0 0 0 249.315 33.619 Q 249.277 32.524 248.096 31.202 A 4.95 4.95 0 0 0 247.425 30.572 A 3.352 3.352 0 0 0 245.337 29.835 Q 244.159 29.835 242.18 31.08 A 22.46 22.46 0 0 0 240.894 31.959 A 40.593 40.593 0 0 0 238.363 33.961 A 30.418 30.418 0 0 0 235.962 36.255 Q 233.936 38.428 233.936 38.941 Q 233.936 39.343 234.553 40.092 A 9.602 9.602 0 0 0 234.937 40.528 A 13.567 13.567 0 0 1 235.278 40.907 Q 235.76 41.465 235.89 41.774 A 0.519 0.519 0 0 1 235.938 41.968 Q 235.938 42.289 233.881 45.656 A 225.919 225.919 0 0 1 233.252 46.68 A 136.647 136.647 0 0 0 231.238 50.049 A 164.92 164.92 0 0 0 227.881 56.153 Q 225.951 59.838 225.408 62.262 A 7.878 7.878 0 0 0 225.195 63.965 A 5.372 5.372 0 0 0 225.523 65.798 Q 226.151 67.539 227.979 69.239 Q 230.762 71.827 234.619 71.827 A 12.227 12.227 0 0 0 237.526 71.449 Q 240.329 70.762 243.701 68.824 A 22.409 22.409 0 0 0 245.451 67.71 A 17.81 17.81 0 0 0 251.318 60.938 Q 251.538 60.462 251.593 59.519 Z M 114.551 39.112 L 114.209 39.112 Q 112.784 39.112 112.547 37.381 A 5.622 5.622 0 0 1 112.5 36.622 A 21.42 21.42 0 0 0 109.083 38.106 Q 107.476 38.968 105.804 40.157 A 38.115 38.115 0 0 0 105.029 40.723 A 36.105 36.105 0 0 0 98.047 47.657 Q 92.738 54.459 91.868 59.464 A 11.192 11.192 0 0 0 91.699 61.182 Q 91.699 63.837 93.587 63.914 A 2.807 2.807 0 0 0 93.701 63.917 Q 95.226 63.917 97.883 62.387 A 31.951 31.951 0 0 0 99.658 61.28 Q 103.08 58.998 106.448 55.036 A 50.586 50.586 0 0 0 107.495 53.76 A 88.903 88.903 0 0 0 109.933 50.556 Q 110.987 49.1 111.83 47.783 A 38.13 38.13 0 0 0 113.306 45.289 Q 115.008 42.122 115.208 40.742 A 2.357 2.357 0 0 0 115.234 40.406 A 3.668 3.668 0 0 0 115.211 39.97 Q 115.158 39.53 114.986 39.316 A 0.53 0.53 0 0 0 114.551 39.112 Z M 97.164 19.088 A 6.63 6.63 0 0 0 97.852 16.211 A 3.611 3.611 0 0 0 97.768 15.409 A 2.394 2.394 0 0 0 97.07 14.161 A 2.621 2.621 0 0 0 95.849 13.523 A 3.853 3.853 0 0 0 94.971 13.428 A 6.563 6.563 0 0 0 91.324 14.547 A 9.665 9.665 0 0 0 89.526 16.089 A 10.724 10.724 0 0 0 88.073 18.037 A 7.239 7.239 0 0 0 87.061 21.68 Q 87.061 23.946 88.74 24.46 A 3.862 3.862 0 0 0 89.868 24.61 Q 91.801 24.61 93.63 23.279 A 11.216 11.216 0 0 0 95.264 21.802 Q 96.517 20.442 97.164 19.088 Z M 258.834 19.088 A 6.63 6.63 0 0 0 259.522 16.211 A 3.611 3.611 0 0 0 259.437 15.409 A 2.394 2.394 0 0 0 258.74 14.161 A 2.621 2.621 0 0 0 257.519 13.523 A 3.853 3.853 0 0 0 256.641 13.428 A 6.563 6.563 0 0 0 252.994 14.547 A 9.665 9.665 0 0 0 251.196 16.089 A 10.724 10.724 0 0 0 249.743 18.037 A 7.239 7.239 0 0 0 248.731 21.68 Q 248.731 23.946 250.41 24.46 A 3.862 3.862 0 0 0 251.538 24.61 Q 253.471 24.61 255.3 23.279 A 11.216 11.216 0 0 0 256.934 21.802 Q 258.187 20.442 258.834 19.088 Z" vector-effect="non-scaling-stroke"/></g></svg>