<?xml version="1.0" standalone="no"?>
<!DOCTYPE svg PUBLIC "-//W3C//DTD SVG 20010904//EN"
 "http://www.w3.org/TR/2001/REC-SVG-20010904/DTD/svg10.dtd">
<svg version="1.0" xmlns="http://www.w3.org/2000/svg"
 width="700.000000pt" height="700.000000pt" viewBox="0 0 700.000000 700.000000"
 preserveAspectRatio="xMidYMid meet">
<metadata>
Created by potrace 1.11, written by Peter Selinger 2001-2013
</metadata>
<g transform="translate(0.000000,700.000000) scale(0.100000,-0.100000)"
fill="#000000" stroke="none">
<path d="M3278 6995 c-2 -1 -42 -5 -89 -9 -47 -4 -95 -8 -105 -10 -10 -2 -48
-7 -84 -12 -36 -4 -67 -8 -70 -9 -3 -1 -25 -5 -50 -9 -25 -4 -61 -12 -80 -16
-19 -5 -78 -19 -130 -31 -364 -82 -781 -266 -1120 -492 -252 -168 -545 -429
-725 -648 -146 -176 -221 -284 -378 -544 -40 -66 -167 -337 -210 -445 -67
-173 -141 -419 -162 -543 -4 -18 -10 -50 -15 -72 -12 -56 -38 -235 -47 -330
-10 -103 -10 -557 0 -655 44 -428 155 -822 337 -1196 260 -534 634 -977 1127
-1332 40 -29 76 -52 80 -52 3 0 14 -7 23 -15 8 -8 56 -38 105 -68 266 -160
569 -292 848 -371 152 -43 349 -85 477 -102 25 -3 56 -7 70 -10 182 -30 694
-25 907 10 21 4 52 8 68 10 254 32 670 163 958 301 l78 38 -19 21 c-11 11 -83
98 -162 191 -78 94 -152 181 -163 195 -29 33 -207 244 -342 405 -60 72 -114
135 -120 141 -5 6 -29 34 -53 63 -34 40 -47 49 -60 42 -22 -12 -254 -69 -312
-76 -24 -4 -47 -8 -50 -10 -12 -7 -198 -19 -305 -19 -106 0 -258 9 -300 18
-11 2 -60 11 -110 21 -409 76 -815 288 -1104 576 -259 258 -445 558 -551 888
-34 107 -73 286 -85 391 -3 19 -7 55 -10 80 -5 49 -6 316 -1 365 3 31 17 139
21 165 15 105 77 341 105 405 5 11 19 45 30 75 49 128 145 300 252 450 68 95
90 122 178 215 235 249 537 445 855 555 100 35 299 86 370 96 28 3 59 8 69 10
29 5 215 17 266 17 353 -1 683 -79 989 -233 525 -265 926 -744 1096 -1310 14
-47 28 -98 31 -114 3 -16 6 -32 8 -35 2 -3 11 -47 20 -96 47 -274 39 -605 -19
-845 -3 -14 -8 -38 -11 -53 -9 -48 -82 -264 -113 -331 l-29 -64 95 -113 c53
-63 115 -136 138 -164 56 -65 241 -284 384 -455 62 -74 127 -151 145 -170 17
-19 47 -55 67 -80 54 -66 76 -90 82 -90 18 0 207 320 281 475 115 240 227 572
271 795 31 157 52 298 63 420 14 159 6 630 -13 725 -2 11 -7 42 -10 69 -3 27
-8 52 -10 55 -1 3 -6 29 -10 57 -15 119 -86 392 -145 559 -357 1004 -1143
1788 -2145 2138 -187 66 -454 134 -593 152 -15 2 -40 6 -57 9 -16 2 -57 7 -90
11 -33 3 -73 8 -90 11 -32 5 -542 14 -547 9z"/>
<path d="M3380 4150 c-71 -15 -168 -51 -204 -75 -20 -14 -40 -25 -44 -25 -20
0 -146 -129 -185 -188 -218 -333 -100 -779 252 -956 107 -54 178 -71 306 -70
116 1 180 16 290 70 254 124 394 384 362 674 -24 219 -175 426 -378 518 -114
52 -289 75 -399 52z"/>
<path d="M4835 2799 c-66 -56 -142 -120 -169 -143 -99 -82 -121 -101 -132
-111 -6 -5 -32 -28 -59 -50 -26 -22 -127 -107 -224 -189 -97 -82 -198 -167
-225 -190 -26 -23 -57 -48 -67 -57 -10 -9 -19 -19 -19 -23 0 -6 409 -495 519
-622 20 -22 45 -52 56 -65 32 -39 84 -100 130 -154 90 -106 282 -334 325 -385
25 -30 61 -73 80 -95 20 -22 58 -67 85 -100 27 -33 55 -64 60 -70 6 -5 29 -32
50 -60 22 -27 44 -55 50 -61 6 -6 88 -103 184 -217 l174 -206 23 18 c22 17
124 105 148 126 10 9 84 72 166 141 204 173 659 560 670 570 12 12 12 15 -1
26 -9 7 -38 40 -65 73 -27 33 -51 62 -54 65 -5 4 -166 196 -235 279 -11 13
-25 29 -30 35 -6 6 -33 38 -60 71 -28 33 -60 71 -72 85 -12 14 -90 106 -173
205 -84 99 -171 203 -195 230 -23 28 -72 86 -109 130 -37 44 -80 94 -94 111
-15 17 -45 52 -67 79 -35 43 -86 103 -144 170 -9 11 -52 63 -96 115 -44 52
-82 97 -85 100 -3 3 -25 30 -50 60 -25 30 -49 60 -55 66 -17 19 -99 116 -110
131 -9 11 -34 -6 -130 -88z"/>
</g>
</svg>
