<?xml version="1.0" encoding="UTF-8" standalone="no"?>
<svg
   xmlns:dc="http://purl.org/dc/elements/1.1/"
   xmlns:cc="http://creativecommons.org/ns#"
   xmlns:rdf="http://www.w3.org/1999/02/22-rdf-syntax-ns#"
   xmlns:svg="http://www.w3.org/2000/svg"
   xmlns="http://www.w3.org/2000/svg"
   xmlns:sodipodi="http://sodipodi.sourceforge.net/DTD/sodipodi-0.dtd"
   xmlns:inkscape="http://www.inkscape.org/namespaces/inkscape"
   id="Capa_1"
   enable-background="new 0 0 512 512"
   height="512"
   viewBox="0 0 512 512"
   width="512"
   version="1.1"
   sodipodi:docname="delivery.svg"
   inkscape:version="1.0.2-2 (e86c870879, 2021-01-15)">
  <metadata
     id="metadata19">
    <rdf:RDF>
      <cc:Work
         rdf:about="">
        <dc:format>image/svg+xml</dc:format>
        <dc:type
           rdf:resource="http://purl.org/dc/dcmitype/StillImage" />
      </cc:Work>
    </rdf:RDF>
  </metadata>
  <defs
     id="defs17" />
  <sodipodi:namedview
     pagecolor="#ffffff"
     bordercolor="#666666"
     borderopacity="1"
     objecttolerance="10"
     gridtolerance="10"
     guidetolerance="10"
     inkscape:pageopacity="0"
     inkscape:pageshadow="2"
     inkscape:window-width="1920"
     inkscape:window-height="1017"
     id="namedview15"
     showgrid="false"
     inkscape:zoom="0.29347694"
     inkscape:cx="1676.2065"
     inkscape:cy="224.5531"
     inkscape:window-x="-8"
     inkscape:window-y="-8"
     inkscape:window-maximized="1"
     inkscape:current-layer="g12" />
  <g
     id="g12">
    <path
       d="M 35.173,241.37192 H 190.349 V 96.022919 H 0 V 286.37192 h 35.173 z"
       id="path2"
       style="stroke:#3c4b35;stroke-opacity:0.28023598;fill:#212121;fill-opacity:1" />
    <path
       d="m 240.84,323.04241 c 16.57,0 30.002,-13.432 30.002,-30.002 0,-16.57 -13.432,-30.002 -30.002,-30.002 H 80.491 v 60.004 z"
       id="path4"
       style="stroke:#212121;stroke-opacity:1;fill:#212121;fill-opacity:1" />
    <path
       d="m115.345 403.677c0 33.139 26.865 60.004 60.004 60.004s60.004-26.865 60.004-60.004z"
       id="path6"
       style="stroke:#3c4b35;stroke-opacity:0.28023598;fill:#212121;fill-opacity:1" />
    <path
       d="m451.996 313.673c2.904 0 5.776.144 8.61.414l-21.642-115.421h29.976v-30h-35.601l-5.625-30.002h-117.452v30h46.243l28.464 175.011h-109.85l-17.433-39.391c-9.304 5.933-20.335 9.388-32.164 9.388h-145.031c-6.501 13.647-10.146 28.907-10.146 45.003v15h296.795c12.384-34.921 45.744-60.002 84.856-60.002z"
       id="path8"
       style="stroke:#212121;stroke-opacity:1;fill:#212121;fill-opacity:1" />
    <ellipse
       cx="451.996"
       cy="403.677"
       transform="matrix(.122 -.993 .993 .122 -3.883 802.964)"
       id="ellipse10"
       style="stroke:#3c4b35;stroke-opacity:0.28023598;fill:#212121;fill-opacity:1;stroke-width:0.99953383;stroke-miterlimit:4;stroke-dasharray:none"
       ry="60.004"
       rx="60.004" />
    <path
       style="fill:#212121;fill-opacity:1;stroke:#212121;stroke-width:5;stroke-linecap:butt;stroke-linejoin:miter;stroke-miterlimit:4;stroke-dasharray:none;stroke-opacity:1"
       d="M 74.963301,54.518765 265.77898,56.222476"
       id="path844"
       sodipodi:nodetypes="cc" />
    <path
       style="fill:#212121;stroke:#212121;stroke-width:5;stroke-linecap:butt;stroke-linejoin:miter;stroke-opacity:1;fill-opacity:1;stroke-miterlimit:4;stroke-dasharray:none"
       d="m 216.37135,120.96351 109.03753,1.70371"
       id="path846" />
    <path
       style="fill:#212121;stroke:#212121;stroke-width:5;stroke-linecap:butt;stroke-linejoin:miter;stroke-opacity:1;fill-opacity:1;stroke-miterlimit:4;stroke-dasharray:none"
       d="M 13.629691,383.33506 238.5196,381.63135"
       id="path848" />
    <circle
       style="fill:#ffffff;fill-opacity:1;stroke:#000000;stroke-width:0.867968;stroke-miterlimit:4;stroke-dasharray:none;stroke-opacity:1;paint-order:markers fill stroke"
       id="path854"
       cx="452.82947"
       cy="402.92282"
       r="29.566015" />
    <circle
       style="fill:#ffffff;fill-opacity:1;stroke:#ffffff;stroke-width:0.868;stroke-miterlimit:4;stroke-dasharray:none;stroke-opacity:1;paint-order:markers fill stroke"
       id="path854-3"
       cx="174.68234"
       cy="406.54544"
       r="29.566015" />
    <path
       style="fill:#212121;stroke:#212121;stroke-width:5;stroke-linecap:butt;stroke-linejoin:miter;stroke-opacity:1;fill-opacity:1;stroke-miterlimit:4;stroke-dasharray:none"
       d="M 13.629691,383.33506 238.5196,381.63135"
       id="path876" />
  </g>
</svg>
